<svg width="0" height="0" class="hidden">
  <symbol version="1.1" id="Unliked" xmlns="http://www.w3.org/2000/svg" xmlns:xlink="http://www.w3.org/1999/xlink" x="0px" y="0px" xml:space="preserve" viewBox="0 0 187.059 187.059">
    <g>
      <path d="M166.27,67.793c0,3.671-0.597,7.307-1.717,10.78c-0.487,1.44-1.827,2.363-3.288,2.363c-0.354,0-0.713-0.037-1.071-0.167
		c-1.803-0.575-2.789-2.527-2.205-4.342c0.914-2.792,1.389-5.693,1.389-8.622c0-10.263-5.578-19.692-14.528-24.643
		c-4.189-2.356-8.769-3.529-13.64-3.529c-1.912,0-3.447-1.522-3.447-3.434c0-1.927,1.535-3.443,3.447-3.443
		c6.052,0,11.776,1.44,16.988,4.378C159.329,43.25,166.27,55.037,166.27,67.793z M187.059,67.793c0,5.791-0.926,11.578-2.74,17.247
		c-8.781,39.449-83.909,87.054-87.105,89.045c-1.127,0.706-2.387,1.078-3.666,1.078c-1.284,0-2.542-0.372-3.672-1.078
		C86.676,172.1,11.5,124.49,2.576,84.398C0.922,79.372,0,73.578,0,67.793C0,47.453,11.073,28.698,28.887,18.91
		c12.291-6.771,25.572-9.024,40.922-5.058c1.921,0.466,3.538,1.775,4.448,3.565l19.595,38.791c0.913,1.814,0.98,3.934,0.188,5.785
		c-0.81,1.897-2.387,3.3-4.348,3.91l-18.736,5.724l19.778,36.392l0.557-23.803c0.067-2.387,1.346-4.545,3.395-5.754l17.963-10.607
		L94.406,32.981c-1.519-2.898-0.779-6.497,1.76-8.549c17.287-14.011,42.369-16.297,61.981-5.562
		C176,28.698,187.059,47.453,187.059,67.793z M173.254,67.793c0-15.32-8.312-29.426-21.732-36.833
		c-13.28-7.237-29.495-6.802-42.118,0.944l18.505,35.354c1.692,3.261,0.548,7.271-2.606,9.122l-20.307,12.02l-1.072,45.784
		c-0.066,3.13-2.223,5.803-5.267,6.527c-3.015,0.779-6.199-0.657-7.679-3.397L54.802,70.792c-0.993-1.814-1.111-4.009-0.32-5.916
		c0.795-1.915,2.396-3.367,4.378-3.973l18.986-5.8l-14.44-28.588c-2.673-0.536-5.169-0.773-7.557-0.773
		c-7.002,0-14.023,1.82-20.301,5.264c-13.402,7.371-21.732,21.468-21.732,36.788c0,4.378,0.694,8.716,2.07,12.994
		c6.181,27.639,55.077,64.472,77.674,79.286c22.572-14.814,71.443-51.611,77.472-78.681C172.56,76.51,173.254,72.171,173.254,67.793
		z"></path>
    </g>
  </symbol>
  <symbol  xmlns="http://www.w3.org/2000/svg" viewBox="0 0 21 18" id="Telegram">
    <path d="M18.665 0.717064L0.935003 7.55406C-0.274997 8.04006 -0.267997 8.71506 0.713003 9.01606L5.265 10.4361L15.797 3.79106C16.295 3.48806 16.75 3.65106 16.376 3.98306L7.843 11.6841H7.841L7.843 11.6851L7.529 16.3771C7.989 16.3771 8.192 16.1661 8.45 15.9171L10.661 13.7671L15.26 17.1641C16.108 17.6311 16.717 17.3911 16.928 16.3791L19.947 2.15106C20.256 0.912064 19.474 0.351064 18.665 0.717064Z" ></path>
  </symbol>
  <symbol  xmlns="http://www.w3.org/2000/svg" viewBox="0 0 24 14" id="VK">
    <path fill-rule="evenodd" clip-rule="evenodd" d="M21.3624 9.75765C21.3624 9.75765 23.3028 11.6741 23.7828 12.5609C23.7922 12.5736 23.7994 12.5878 23.8044 12.6029C24 12.9305 24.048 13.1873 23.952 13.3769C23.79 13.6901 23.2416 13.8473 23.0556 13.8605H19.626C19.3872 13.8605 18.8904 13.7981 18.2856 13.3805C17.8236 13.0577 17.364 12.5261 16.9188 12.0065C16.254 11.2349 15.6792 10.5653 15.0972 10.5653C15.0237 10.5651 14.9507 10.5773 14.8812 10.6013C14.4408 10.7405 13.8816 11.3681 13.8816 13.0397C13.8816 13.5629 13.4688 13.8605 13.1796 13.8605H11.6088C11.0736 13.8605 8.28722 13.6733 5.81642 11.0681C2.78882 7.87845 0.0696241 1.48005 0.0432241 1.42365C-0.125976 1.00965 0.229224 0.784049 0.613224 0.784049H4.07642C4.54082 0.784049 4.69202 1.06485 4.79762 1.31685C4.92002 1.60605 5.37362 2.76285 6.11762 4.06245C7.32242 6.17685 8.06282 7.03725 8.65442 7.03725C8.76557 7.03758 8.87484 7.0086 8.97122 6.95325C9.74402 6.52845 9.60002 3.76845 9.56402 3.19965C9.56402 3.08925 9.56282 1.96725 9.16682 1.42485C8.88362 1.03605 8.40122 0.884848 8.10962 0.829648C8.18762 0.716848 8.35322 0.544048 8.56562 0.442048C9.09482 0.178048 10.0512 0.139648 11.0004 0.139648H11.5272C12.5568 0.154048 12.8232 0.220048 13.1976 0.314848C13.9512 0.494848 13.9656 0.983249 13.8996 2.64645C13.8804 3.12165 13.86 3.65685 13.86 4.28685C13.86 4.42125 13.854 4.57125 13.854 4.72365C13.8312 5.57685 13.8012 6.53805 14.4036 6.93285C14.4818 6.98152 14.572 7.0073 14.664 7.00725C14.8728 7.00725 15.498 7.00725 17.1936 4.09725C17.9376 2.81205 18.5136 1.29645 18.5532 1.18245C18.5868 1.11885 18.6876 0.940048 18.81 0.868048C18.8971 0.821723 18.9946 0.798581 19.0932 0.800849H23.1672C23.6112 0.800849 23.9124 0.868049 23.9712 1.03605C24.0696 1.30845 23.952 2.14005 22.092 4.65525C21.7788 5.07405 21.504 5.43645 21.2628 5.75325C19.5768 7.96605 19.5768 8.07765 21.3624 9.75765Z" ></path>
  </symbol>
  <symbol  xmlns="http://www.w3.org/2000/svg" viewBox="0 0 24 16" id="YouTube">
    <path d="M22.8956 2.52385C22.7662 2.04288 22.5127 1.60435 22.1605 1.25215C21.8083 0.899951 21.3697 0.646434 20.8888 0.516973C19.1175 0.0375978 12 0.0375977 12 0.0375977C12 0.0375977 4.8825 0.0375978 3.11125 0.516973C2.63029 0.646434 2.19176 0.899951 1.83956 1.25215C1.48736 1.60435 1.23384 2.04288 1.10438 2.52385C0.773648 4.33025 0.613153 6.1637 0.625005 8.0001C0.613153 9.83649 0.773648 11.6699 1.10438 13.4763C1.23384 13.9573 1.48736 14.3958 1.83956 14.748C2.19176 15.1002 2.63029 15.3538 3.11125 15.4832C4.8825 15.9626 12 15.9626 12 15.9626C12 15.9626 19.1175 15.9626 20.8888 15.4832C21.3697 15.3538 21.8083 15.1002 22.1605 14.748C22.5127 14.3958 22.7662 13.9573 22.8956 13.4763C23.2264 11.6699 23.3869 9.83649 23.375 8.0001C23.3869 6.1637 23.2264 4.33025 22.8956 2.52385ZM9.72501 11.4126V4.5876L15.6319 8.0001L9.72501 11.4126Z" ></path>
  </symbol>
  <symbol  xmlns="http://www.w3.org/2000/svg" viewBox="0 0 16 16" id="Account">
    <path d="M8 0C9.06087 0 10.0783 0.421427 10.8284 1.17157C11.5786 1.92172 12 2.93913 12 4C12 5.06087 11.5786 6.07828 10.8284 6.82843C10.0783 7.57857 9.06087 8 8 8C6.93913 8 5.92172 7.57857 5.17157 6.82843C4.42143 6.07828 4 5.06087 4 4C4 2.93913 4.42143 1.92172 5.17157 1.17157C5.92172 0.421427 6.93913 0 8 0ZM8 10C12.42 10 16 11.79 16 14V16H0V14C0 11.79 3.58 10 8 10Z" ></path>
  </symbol>
  <symbol xmlns="http://www.w3.org/2000/svg" xmlns:xlink="http://www.w3.org/1999/xlink" version="1.1" id="Cart" x="0px" y="0px" xml:space="preserve" viewBox="0 0 511.806 511.806">
    <g>
      <path d="M155.703,384.866c-8.659,0-15.703-7.044-15.703-15.703c0-8.658,7.044-15.702,15.703-15.702H456.84l54.966-215.526H122.279   L93.008,27.391H0v30h69.918l71.099,268.505C123.001,332.028,110,349.101,110,369.164c0,25.2,20.502,45.702,45.703,45.702h16.878   c-2.637,6.065-4.107,12.75-4.107,19.774c0,27.446,22.329,49.774,49.774,49.774s49.773-22.329,49.773-49.774   c0-7.024-1.47-13.709-4.107-19.774h74.001c-2.636,6.065-4.107,12.75-4.107,19.774c0,27.446,22.329,49.774,49.774,49.774   s49.773-22.329,49.773-49.774c0-7.024-1.47-13.709-4.107-19.774h31.34v-30H155.703z M473.194,167.935l-39.663,155.526H171.406   l-41.183-155.526H473.194z M238.021,434.64c0,10.904-8.87,19.774-19.773,19.774s-19.774-8.871-19.774-19.774   c0-10.903,8.871-19.774,19.774-19.774S238.021,423.737,238.021,434.64z M403.356,434.64c0,10.904-8.87,19.774-19.773,19.774   s-19.774-8.871-19.774-19.774c0-10.903,8.871-19.774,19.774-19.774S403.356,423.737,403.356,434.64z"></path>
      <rect x="193.965" y="200.617" width="30" height="95.136"></rect>
      <rect x="256.054" y="200.617" width="30" height="95.136"></rect>
      <rect x="318.143" y="200.617" width="30" height="95.136"></rect>
      <rect x="380.231" y="200.617" width="30" height="95.136"></rect>
    </g>
  </symbol>
  <symbol xmlns="http://www.w3.org/2000/svg" xmlns:xlink="http://www.w3.org/1999/xlink" version="1.1" id="CartAdd" x="0px" y="0px" xml:space="preserve" viewBox="0 0 512 512">
    <g>
      <path d="M128.772,352.493h297.461l26.86-105.323C487.583,233.315,512,199.529,512,160.144c0-51.69-42.053-93.742-93.742-93.742   c-44.547,0-81.933,31.236-91.415,72.955H95.9L66.999,30.209H0v29.955h43.943L114.071,325c-17.777,6.12-30.591,23.001-30.591,42.83   c0,24.974,20.318,45.292,45.292,45.292h16.406c-2.548,5.946-3.963,12.489-3.963,19.357c0,27.191,22.121,49.312,49.312,49.312   c27.191,0,49.312-22.121,49.312-49.312c0-6.868-1.415-13.41-3.963-19.357h72.547c-2.548,5.946-3.963,12.489-3.963,19.357   c0,27.191,22.121,49.312,49.312,49.312s49.312-22.121,49.312-49.312c0-6.868-1.415-13.41-3.963-19.357h30.685v-29.955H128.772   c-8.457,0-15.337-6.88-15.337-15.337C113.435,359.373,120.315,352.493,128.772,352.493z M209.883,432.478   c0,10.674-8.683,19.357-19.357,19.357c-10.673,0-19.356-8.683-19.356-19.357c0-10.674,8.683-19.357,19.356-19.357   C201.2,413.122,209.883,421.805,209.883,432.478z M373.128,432.478c0,10.674-8.683,19.357-19.357,19.357   c-10.674,0-19.357-8.683-19.357-19.357c0-10.674,8.683-19.357,19.357-19.357C364.445,413.122,373.128,421.805,373.128,432.478z    M418.258,96.357c35.172,0,63.787,28.615,63.787,63.787s-28.615,63.787-63.787,63.787s-63.787-28.615-63.787-63.787   S383.086,96.357,418.258,96.357z M324.965,169.312c2.081,21.335,11.341,40.597,25.33,55.33v70.705h29.955v-49.52   c11.624,5.176,24.484,8.059,38.008,8.059c0.741,0,1.479-0.011,2.216-0.028l-17.515,68.68H144.406l-40.573-153.226H324.965z"></path>
      <rect x="166.384" y="201.413" width="29.955" height="93.934"></rect>
      <rect x="227.688" y="201.413" width="29.955" height="93.934"></rect>
      <rect x="288.992" y="201.413" width="29.955" height="93.934"></rect>
      <polygon points="403.28,201.607 433.236,201.607 433.236,175.045 459.798,175.045 459.798,145.09 433.236,145.09 433.236,118.528    403.28,118.528 403.28,145.09 376.718,145.09 376.718,175.045 403.28,175.045  "></polygon>
    </g>
  </symbol>
  <symbol  xmlns="http://www.w3.org/2000/svg" viewBox="0 0 14 16" id="Etsy">
    <path d="M4.70932 1.63C4.70932 1.41333 4.73132 1.28333 5.10265 1.28333H10.0793C10.946 1.28333 11.426 2.02333 11.7727 3.412L12.0527 4.52267H12.8993C13.0527 1.37067 13.186 0 13.186 0C13.186 0 11.0553 0.24 9.79265 0.24H3.42665L0.0173187 0.130667V1.044L1.16732 1.26133C1.97399 1.42133 2.16732 1.592 2.23399 2.332C2.23399 2.332 2.30732 4.512 2.30732 8.092C2.30732 11.682 2.24732 13.832 2.24732 13.832C2.24732 14.4807 1.98732 14.7207 1.18732 14.8807L0.0393187 15.1007V16L3.45932 15.89H9.15932C10.4493 15.89 13.4193 16 13.4193 16C13.4893 15.22 13.9193 11.68 13.9893 11.2907H13.1893L12.3333 13.2307C11.6633 14.7507 10.6827 14.8607 9.59332 14.8607H6.32265C5.23599 14.8607 4.71265 14.434 4.71265 13.494V8.53333C4.71265 8.53333 7.12599 8.53333 7.90598 8.59733C8.51398 8.64 8.88132 8.814 9.07932 9.66267L9.33932 10.7927H10.2793L10.2193 7.94067L10.3473 5.07067H9.41998L9.11998 6.33067C8.93132 7.16 8.79998 7.31067 7.95065 7.39733C6.83998 7.51067 4.74065 7.49067 4.74065 7.49067V1.63333H4.70732L4.70932 1.63Z" ></path>
  </symbol>
  <symbol version="1.1" id="Delete" xmlns="http://www.w3.org/2000/svg" xmlns:xlink="http://www.w3.org/1999/xlink" x="0px" y="0px" xml:space="preserve" viewBox="0 0 511.995 511.995">
    <g>
      <g>
        <path d="M437.126,74.939c-99.826-99.826-262.307-99.826-362.133,0C26.637,123.314,0,187.617,0,256.005
			s26.637,132.691,74.993,181.047c49.923,49.923,115.495,74.874,181.066,74.874s131.144-24.951,181.066-74.874
			C536.951,337.226,536.951,174.784,437.126,74.939z M409.08,409.006c-84.375,84.375-221.667,84.375-306.042,0
			c-40.858-40.858-63.37-95.204-63.37-153.001s22.512-112.143,63.37-153.021c84.375-84.375,221.667-84.355,306.042,0
			C493.435,187.359,493.435,324.651,409.08,409.006z"></path>
      </g>
    </g>
    <g>
      <g>
        <path d="M341.525,310.827l-56.151-56.071l56.151-56.071c7.735-7.735,7.735-20.29,0.02-28.046
			c-7.755-7.775-20.31-7.755-28.065-0.02l-56.19,56.111l-56.19-56.111c-7.755-7.735-20.31-7.755-28.065,0.02
			c-7.735,7.755-7.735,20.31,0.02,28.046l56.151,56.071l-56.151,56.071c-7.755,7.735-7.755,20.29-0.02,28.046
			c3.868,3.887,8.965,5.811,14.043,5.811s10.155-1.944,14.023-5.792l56.19-56.111l56.19,56.111
			c3.868,3.868,8.945,5.792,14.023,5.792c5.078,0,10.175-1.944,14.043-5.811C349.28,331.117,349.28,318.562,341.525,310.827z"></path>
      </g>
    </g>
  </symbol>
  <symbol  xmlns="http://www.w3.org/2000/svg" viewBox="0 0 12 20" id="Facebook">
    <path d="M7.51341 19.7467V10.8677H10.5088L10.9541 7.39127H7.51341V5.17694C7.51341 4.17377 7.79291 3.48694 9.23266 3.48694H11.057V0.387523C10.1694 0.292396 9.27713 0.246465 8.38441 0.249939C5.73674 0.249939 3.91891 1.86627 3.91891 4.83352V7.38477H0.942993V10.8612H3.92541V19.7467H7.51341Z" ></path>
  </symbol>
  <symbol  xmlns="http://www.w3.org/2000/svg" viewBox="0 0 18 12" id="Letter">
    <path d="M0.574002 1.286L8.074 5.315C8.326 5.45 8.652 5.514 8.98 5.514C9.308 5.514 9.634 5.45 9.886 5.315L17.386 1.286C17.875 1.023 18.337 0 17.44 0H0.521002C-0.375998 0 0.0860016 1.023 0.574002 1.286ZM17.613 3.489L9.886 7.516C9.546 7.694 9.308 7.715 8.98 7.715C8.652 7.715 8.414 7.694 8.074 7.516C7.734 7.338 0.941002 3.777 0.386002 3.488C-0.00399834 3.284 1.61606e-06 3.523 1.61606e-06 3.707V11C1.61606e-06 11.42 0.566002 12 1 12H17C17.434 12 18 11.42 18 11V3.708C18 3.524 18.004 3.285 17.613 3.489Z" ></path>
  </symbol>
  <symbol version="1.1" id="Liked" xmlns="http://www.w3.org/2000/svg" xmlns:xlink="http://www.w3.org/1999/xlink" x="0px" y="0px" xml:space="preserve" viewBox="0 0 168.274 168.273">
    <g>
      <path d="M142.267,16.291C123.67,6.052,99.472,9.164,84.14,23.211C68.795,9.157,44.694,6.04,25.988,16.291
		C9.953,25.126,0,42.006,0,60.312C0,65.562,0.855,70.78,2.338,75.24c8.038,36.09,75.627,78.891,78.493,80.699l3.31,2.083
		l3.312-2.083c2.861-1.809,70.451-44.615,78.324-80.108c1.65-5.058,2.497-10.27,2.497-15.519
		C168.28,42.006,158.33,25.126,142.267,16.291z M153.763,72.527c-5.407,24.323-49.322,57.412-69.623,70.717
		c-20.302-13.299-64.244-46.412-69.779-71.316c-1.242-3.791-1.878-7.7-1.878-11.63c0-13.774,7.478-26.442,19.498-33.094
		c5.626-3.075,11.962-4.701,18.258-4.701c11.274,0,21.894,4.987,29.13,13.691l4.783,5.767l4.774-5.767
		c11.35-13.643,31.651-17.601,47.349-8.99c12.062,6.646,19.54,19.32,19.54,33.094C155.797,64.234,155.164,68.144,153.763,72.527z
		 M149.562,60.307c0,3.221-0.512,6.463-1.547,9.657c-0.427,1.321-1.645,2.165-2.947,2.165c-0.305,0-0.651-0.046-0.95-0.152
		c-1.644-0.53-2.558-2.28-2.009-3.928c0.815-2.569,1.242-5.176,1.242-7.742c0-9.222-5.018-17.71-13.08-22.174
		c-3.8-2.095-7.94-3.16-12.227-3.16c-1.742,0-3.105-1.403-3.105-3.118c0-1.717,1.363-3.118,3.105-3.118
		c5.353,0,10.497,1.321,15.241,3.958C143.327,38.228,149.562,48.807,149.562,60.307z"></path>
    </g>
  </symbol>
  <symbol  xmlns="http://www.w3.org/2000/svg" viewBox="0 0 218 53" id="OJJO">
    <path d="M45.4247 44.712C40.3847 49.752 34.2167 52.272 26.9207 52.272C19.6247 52.272 13.4327 49.752 8.34467 44.712C3.30467 39.624 0.784668 33.432 0.784668 26.136C0.784668 18.84 3.30467 12.672 8.34467 7.632C13.4327 2.544 19.6247 0 26.9207 0C34.2167 0 40.3847 2.544 45.4247 7.632C50.5127 12.672 53.0567 18.84 53.0567 26.136C53.0567 33.432 50.5127 39.624 45.4247 44.712ZM14.1767 39.096C17.6327 42.504 21.8807 44.208 26.9207 44.208C31.9607 44.208 36.1847 42.504 39.5927 39.096C43.0487 35.64 44.7767 31.32 44.7767 26.136C44.7767 20.952 43.0487 16.656 39.5927 13.248C36.1847 9.792 31.9607 8.064 26.9207 8.064C21.8807 8.064 17.6327 9.792 14.1767 13.248C10.7687 16.656 9.06467 20.952 9.06467 26.136C9.06467 31.32 10.7687 35.64 14.1767 39.096Z" ></path>
    <path d="M81.1519 52.272C73.3279 52.272 67.9279 49.2 64.9519 43.056L72.0799 38.88C73.7119 42.432 76.7599 44.208 81.2239 44.208C84.1039 44.208 86.3119 43.512 87.8479 42.12C89.4319 40.68 90.2239 38.664 90.2239 36.072V0.936001H98.5039V36.072C98.5039 41.256 96.8719 45.264 93.6079 48.096C90.3439 50.88 86.1919 52.272 81.1519 52.272Z" ></path>
    <path d="M129.71 52.272C121.886 52.272 116.486 49.2 113.51 43.056L120.638 38.88C122.27 42.432 125.318 44.208 129.782 44.208C132.662 44.208 134.87 43.512 136.406 42.12C137.99 40.68 138.782 38.664 138.782 36.072V0.936001H147.062V36.072C147.062 41.256 145.43 45.264 142.166 48.096C138.902 50.88 134.75 52.272 129.71 52.272Z" ></path>
    <path d="M209.59 44.712C204.55 49.752 198.382 52.272 191.086 52.272C183.79 52.272 177.598 49.752 172.51 44.712C167.47 39.624 164.95 33.432 164.95 26.136C164.95 18.84 167.47 12.672 172.51 7.632C177.598 2.544 183.79 0 191.086 0C198.382 0 204.55 2.544 209.59 7.632C214.678 12.672 217.222 18.84 217.222 26.136C217.222 33.432 214.678 39.624 209.59 44.712ZM178.342 39.096C181.798 42.504 186.046 44.208 191.086 44.208C196.126 44.208 200.35 42.504 203.758 39.096C207.214 35.64 208.942 31.32 208.942 26.136C208.942 20.952 207.214 16.656 203.758 13.248C200.35 9.792 196.126 8.064 191.086 8.064C186.046 8.064 181.798 9.792 178.342 13.248C174.934 16.656 173.23 20.952 173.23 26.136C173.23 31.32 174.934 35.64 178.342 39.096Z" ></path>
    <path d="M36.9888 24.0582L36.9828 24.0057C36.9717 23.9401 36.9518 23.8766 36.9237 23.8177L33.9765 18.5195C33.9765 18.5195 33.6007 18 33.5114 18H20.9524L17.1754 23.6379L17.1307 23.6899L17.1247 23.7143C17.0927 23.7715 17.0665 23.8325 17.0465 23.8961L17.0312 23.9465C16.9876 24.1078 16.9898 24.2801 17.0372 24.44L17.0549 24.4966C17.0786 24.5636 17.1079 24.6249 17.1423 24.6795L26.2737 37.5974L26.2923 37.627C26.3393 37.6945 26.3965 37.7543 26.4662 37.8088L26.5193 37.8457C26.5714 37.8821 26.6258 37.9112 26.7049 37.9434L26.7565 37.9626C26.8458 37.9881 26.9235 38 26.9993 38C27.076 38 27.1509 37.9886 27.2519 37.9595L27.3137 37.9351C27.3742 37.9112 27.4286 37.8816 27.4942 37.8364L27.5352 37.8078C27.6054 37.7522 27.6617 37.6919 27.6928 37.6447L36.8358 24.7132C36.9167 24.5928 36.9694 24.4518 36.9893 24.3029L36.9963 24.2358L37 24.1829L36.9888 24.0582ZM32.0862 23.7143L33.3877 21.0842L34.6882 23.7143H32.0862ZM31.3056 25.2727H34.3933L29.2469 32.5532L31.3056 25.2727ZM30.5419 22.9257L28.6622 20.0779H31.9508L30.5419 22.9257ZM24.521 25.2727H29.479L26.9993 34.04L24.521 25.2727ZM25.0126 23.7143L26.9993 20.7034L28.9859 23.7143H25.0126ZM23.6135 22.6899L22.752 20.0779H25.3369L23.6135 22.6899ZM24.7526 32.5538L19.6058 25.2727H22.6939L24.7526 32.5538ZM21.2617 21.1023L22.1236 23.7143H19.5383L21.2617 21.1023Z" ></path>
    <path d="M200.989 24.0582L200.983 24.0057C200.972 23.9401 200.952 23.8766 200.924 23.8177L197.977 18.5195C197.977 18.5195 197.601 18 197.511 18H184.952L181.175 23.6379L181.131 23.6899L181.125 23.7143C181.093 23.7715 181.067 23.8325 181.047 23.8961L181.031 23.9465C180.988 24.1078 180.99 24.2801 181.037 24.44L181.055 24.4966C181.079 24.5636 181.108 24.6249 181.142 24.6795L190.274 37.5974L190.292 37.627C190.339 37.6945 190.396 37.7543 190.466 37.8088L190.519 37.8457C190.571 37.8821 190.626 37.9112 190.705 37.9434L190.756 37.9626C190.846 37.9881 190.923 38 190.999 38C191.076 38 191.151 37.9886 191.252 37.9595L191.314 37.9351C191.374 37.9112 191.429 37.8816 191.494 37.8364L191.535 37.8078C191.605 37.7522 191.662 37.6919 191.693 37.6447L200.836 24.7132C200.917 24.5928 200.969 24.4518 200.989 24.3029L200.996 24.2358L201 24.1829L200.989 24.0582ZM196.086 23.7143L197.388 21.0842L198.688 23.7143H196.086ZM195.306 25.2727H198.393L193.247 32.5532L195.306 25.2727ZM194.542 22.9257L192.662 20.0779H195.951L194.542 22.9257ZM188.521 25.2727H193.479L190.999 34.04L188.521 25.2727ZM189.013 23.7143L190.999 20.7034L192.986 23.7143H189.013ZM187.613 22.6899L186.752 20.0779H189.337L187.613 22.6899ZM188.753 32.5538L183.606 25.2727H186.694L188.753 32.5538ZM185.262 21.1023L186.124 23.7143H183.538L185.262 21.1023Z" ></path>
  </symbol>
  <symbol version="1.1" id="LikedAdd" xmlns="http://www.w3.org/2000/svg" xmlns:xlink="http://www.w3.org/1999/xlink" x="0px" y="0px" xml:space="preserve" viewBox="0 0 187.059 187.06">
    <g>
      <path d="M93.511,175.667l-3.688-2.333c-3.19-1.991-78.306-49.584-87.236-89.675C0.928,78.721,0,72.903,0,67.054
		C0,46.683,11.079,27.953,28.887,18.14c20.74-11.398,47.632-7.919,64.625,7.67c17.104-15.589,43.909-19.145,64.636-7.67
		c17.829,9.801,28.912,28.543,28.912,48.915c0,5.849-0.926,11.667-2.777,17.253c-1.084,5.015-3.684,11.055-7.557,17.352
		l-11.807-7.234c3.081-5.011,5.103-9.642,6.022-13.771c1.559-4.871,2.247-9.204,2.247-13.6c0-15.29-8.318-29.398-21.714-36.793
		c-17.318-9.539-40.067-5.106-52.635,10.001l-5.334,6.421l-5.313-6.421C75.609,25.066,52.994,20.707,35.573,30.261
		c-13.381,7.407-21.699,21.504-21.699,36.793c0,4.396,0.691,8.723,2.064,12.921c6.19,27.669,54.982,64.472,77.561,79.256
		c4.987-3.281,14.547-9.81,25.252-18.164l8.525,10.955c-16.234,12.604-29.509,20.977-30.075,21.354L93.511,175.667z M26.893,80.006
		c1.809-0.572,2.807-2.533,2.213-4.36c-0.929-2.798-1.385-5.672-1.385-8.592c0-10.251,5.569-19.683,14.529-24.616
		c4.229-2.377,8.811-3.556,13.618-3.556c1.909,0,3.468-1.52,3.468-3.446c0-1.939-1.559-3.462-3.468-3.462
		c-5.985,0-11.703,1.446-16.967,4.366c-11.165,6.153-18.112,17.926-18.112,30.713c0,3.654,0.594,7.271,1.727,10.762
		c0.493,1.446,1.839,2.363,3.3,2.363C26.162,80.173,26.537,80.149,26.893,80.006z M185.744,123.878
		c0-20.643-16.782-37.375-37.382-37.375s-37.381,16.751-37.381,37.375c0,20.605,16.781,37.339,37.381,37.339
		S185.744,144.483,185.744,123.878z M178.802,123.878c0,16.77-13.652,30.446-30.44,30.446c-16.787,0-30.439-13.658-30.439-30.446
		c0-16.806,13.652-30.482,30.439-30.482C165.15,93.396,178.802,107.072,178.802,123.878z M152.046,140.015v-31.115
		c0-1.931-1.56-3.453-3.465-3.453c-1.906,0-3.465,1.522-3.465,3.453v31.115c0,1.93,1.559,3.452,3.465,3.452
		C150.487,143.467,152.046,141.944,152.046,140.015z M167.61,124.456c0-1.941-1.559-3.458-3.465-3.458h-31.121
		c-1.912,0-3.471,1.517-3.471,3.458c0,1.938,1.559,3.459,3.471,3.459h31.121C166.051,127.915,167.61,126.394,167.61,124.456z"></path>
    </g>
  </symbol>
  <symbol version="1.1" id="Pluce" xmlns="http://www.w3.org/2000/svg" xmlns:xlink="http://www.w3.org/1999/xlink" x="0px" y="0px" xml:space="preserve" viewBox="0 0 512 512">
    <g>
      <g>
        <path d="M256,0C114.833,0,0,114.833,0,256s114.833,256,256,256s256-114.853,256-256S397.167,0,256,0z M256,472.341
			c-119.275,0-216.341-97.046-216.341-216.341S136.725,39.659,256,39.659S472.341,136.705,472.341,256S375.295,472.341,256,472.341z
			"></path>
      </g>
    </g>
    <g>
      <g>
        <path d="M355.148,234.386H275.83v-79.318c0-10.946-8.864-19.83-19.83-19.83s-19.83,8.884-19.83,19.83v79.318h-79.318
			c-10.966,0-19.83,8.884-19.83,19.83s8.864,19.83,19.83,19.83h79.318v79.318c0,10.946,8.864,19.83,19.83,19.83
			s19.83-8.884,19.83-19.83v-79.318h79.318c10.966,0,19.83-8.884,19.83-19.83S366.114,234.386,355.148,234.386z"></path>
      </g>
    </g>
  </symbol>
  <symbol  xmlns="http://www.w3.org/2000/svg" viewBox="0 0 20 16" id="Phone">
    <path d="M17.256 10.253C17.16 9.586 16.645 9.066 15.982 8.911C13.405 8.307 12.759 6.823 12.65 5.177C12.193 5.092 11.38 5 10 5C8.62 5 7.807 5.092 7.35 5.177C7.241 6.823 6.595 8.307 4.018 8.911C3.355 9.067 2.84 9.586 2.744 10.253L2.247 13.695C2.072 14.907 2.962 16 4.2 16H15.8C17.037 16 17.928 14.907 17.753 13.695L17.256 10.253ZM10 13.492C8.605 13.492 7.474 12.372 7.474 10.992C7.474 9.612 8.605 8.492 10 8.492C11.395 8.492 12.526 9.612 12.526 10.992C12.526 12.372 11.394 13.492 10 13.492ZM19.95 4C19.926 2.5 16.108 0.001 10 0C3.891 0.001 0.0729981 2.5 0.0499981 4C0.0269981 5.5 0.0709982 7.452 2.585 7.127C5.526 6.746 5.345 5.719 5.345 4.251C5.345 3.227 7.737 2.98 10 2.98C12.263 2.98 14.654 3.227 14.655 4.251C14.655 5.719 14.474 6.746 17.415 7.127C19.928 7.452 19.973 5.5 19.95 4Z" ></path>
  </symbol>
  <symbol version="1.1" id="Pluse" xmlns="http://www.w3.org/2000/svg" xmlns:xlink="http://www.w3.org/1999/xlink" x="0px" y="0px" xml:space="preserve" viewBox="0 0 512 512">
    <g>
      <g>
        <path d="M256,0C114.833,0,0,114.833,0,256s114.833,256,256,256s256-114.853,256-256S397.167,0,256,0z M256,472.341
			c-119.275,0-216.341-97.046-216.341-216.341S136.725,39.659,256,39.659S472.341,136.705,472.341,256S375.295,472.341,256,472.341z
			"></path>
      </g>
    </g>
    <g>
      <g>
        <path d="M355.148,234.386H275.83v-79.318c0-10.946-8.864-19.83-19.83-19.83s-19.83,8.884-19.83,19.83v79.318h-79.318
			c-10.966,0-19.83,8.884-19.83,19.83s8.864,19.83,19.83,19.83h79.318v79.318c0,10.946,8.864,19.83,19.83,19.83
			s19.83-8.884,19.83-19.83v-79.318h79.318c10.966,0,19.83-8.884,19.83-19.83S366.114,234.386,355.148,234.386z"></path>
      </g>
    </g>
  </symbol>
  <symbol  xmlns="http://www.w3.org/2000/svg" viewBox="0 0 12 18" id="Place">
    <path d="M11.8337 6.49996C11.8337 5.73392 11.6828 4.97537 11.3896 4.26764C11.0965 3.55991 10.6668 2.91684 10.1251 2.37517C9.58344 1.83349 8.94038 1.40381 8.23265 1.11066C7.52491 0.81751 6.76637 0.666626 6.00033 0.666626C5.23428 0.666626 4.47574 0.81751 3.76801 1.11066C3.06027 1.40381 2.41721 1.83349 1.87554 2.37517C1.33386 2.91684 0.904181 3.55991 0.611028 4.26764C0.317876 4.97537 0.166992 5.73392 0.166992 6.49996C0.166992 7.65579 0.508659 8.73079 1.08783 9.63746H1.08116C3.04783 12.7166 6.00033 17.3333 6.00033 17.3333L10.9195 9.63746H10.9137C11.514 8.7011 11.8333 7.61224 11.8337 6.49996ZM6.00033 8.99996C5.33729 8.99996 4.7014 8.73657 4.23256 8.26773C3.76372 7.79889 3.50033 7.163 3.50033 6.49996C3.50033 5.83692 3.76372 5.20103 4.23256 4.73219C4.7014 4.26335 5.33729 3.99996 6.00033 3.99996C6.66337 3.99996 7.29925 4.26335 7.76809 4.73219C8.23693 5.20103 8.50033 5.83692 8.50033 6.49996C8.50033 7.163 8.23693 7.79889 7.76809 8.26773C7.29925 8.73657 6.66337 8.99996 6.00033 8.99996Z" ></path>
  </symbol>
  <symbol version="1.1" id="Minus" xmlns="http://www.w3.org/2000/svg" xmlns:xlink="http://www.w3.org/1999/xlink" x="0px" y="0px" xml:space="preserve" viewBox="0 0 512 512">
    <g>
      <g>
        <path d="M256,0C114.853,0,0,114.833,0,256s114.853,256,256,256c141.167,0,256-114.833,256-256S397.147,0,256,0z M256,472.341
			c-119.295,0-216.341-97.046-216.341-216.341S136.705,39.659,256,39.659S472.341,136.705,472.341,256S375.295,472.341,256,472.341z
			"></path>
      </g>
    </g>
    <g>
      <g>
        <path d="M355.148,234.386H156.852c-10.946,0-19.83,8.884-19.83,19.83s8.884,19.83,19.83,19.83h198.296
			c10.946,0,19.83-8.884,19.83-19.83S366.094,234.386,355.148,234.386z"></path>
      </g>
    </g>
  </symbol>
  <symbol xmlns="http://www.w3.org/2000/svg" viewBox="0 0 19 19" id="Search">
    <path d="M19.0002 17L13.8462 11.846C14.799 10.3979 15.1807 8.64774 14.9172 6.93442C14.6538 5.22111 13.764 3.66648 12.4201 2.57154C11.0762 1.47659 9.37391 0.919227 7.64269 1.00735C5.91148 1.09547 4.27453 1.82281 3.04879 3.04855C1.82305 4.27429 1.09571 5.91123 1.00759 7.64245C0.919471 9.37366 1.47684 11.076 2.57178 12.4199C3.66672 13.7637 5.22135 14.6535 6.93467 14.917C8.64799 15.1804 10.3981 14.7988 11.8462 13.846L17.0002 19L19.0002 17ZM3.00022 7.99998C3.00022 5.24298 5.24322 2.99998 8.00022 2.99998C10.7572 2.99998 13.0002 5.24298 13.0002 7.99998C13.0002 10.757 10.7572 13 8.00022 13C5.24322 13 3.00022 10.757 3.00022 7.99998Z"></path>
  </symbol>
</svg>